<?xml version="1.0" encoding="utf-8"?>
<!-- Generator: Adobe Illustrator 22.1.0, SVG Export Plug-In . SVG Version: 6.00 Build 0)  -->
<svg version="1.1" id="Capa_1" xmlns="http://www.w3.org/2000/svg" xmlns:xlink="http://www.w3.org/1999/xlink" x="0px" y="0px"
	 viewBox="0 0 512 360" style="enable-background:new 0 0 512 360;" xml:space="preserve">
<g>
	<path d="M142.5,150h77c12.4,0,22.5-10.1,22.5-22.5v-45c0-12.4-10.1-22.5-22.5-22.5h-77C130.1,60,120,70.1,120,82.5v45
		C120,139.9,130.1,150,142.5,150z M135,82.5c0-4.1,3.4-7.5,7.5-7.5h77c4.1,0,7.5,3.4,7.5,7.5v45c0,4.1-3.4,7.5-7.5,7.5h-77
		c-4.1,0-7.5-3.4-7.5-7.5V82.5z"/>
	<path d="M444.5,165h-317c-4.1,0-7.5,3.4-7.5,7.5v30c0,4.1,3.4,7.5,7.5,7.5h317c4.1,0,7.5-3.4,7.5-7.5v-30
		C452,168.4,448.6,165,444.5,165z M437,195H135v-15h302V195z"/>
	<path d="M337.5,225h-210c-4.1,0-7.5,3.4-7.5,7.5s3.4,7.5,7.5,7.5h210c4.1,0,7.5-3.4,7.5-7.5S341.6,225,337.5,225z"/>
	<path d="M474.5,0h-377C76.8,0,60,16.8,60,37.5V60H37.5C16.8,60,0,76.8,0,97.5v225C0,343.2,16.8,360,37.5,360h377
		c20.7,0,37.5-16.8,37.5-37.5V300h22.5c20.7,0,37.5-16.8,37.5-37.5v-225C512,16.8,495.2,0,474.5,0z M37.5,75H60v60H15V97.5
		C15,85.1,25.1,75,37.5,75z M60,150v45H15v-45H60z M497,262.5c0,12.4-10.1,22.5-22.5,22.5h-377C85.1,285,75,274.9,75,262.5v-30
		c0-4.1-3.4-7.5-7.5-7.5s-7.5,3.4-7.5,7.5v30c0,20.7,16.8,37.5,37.5,37.5H437v22.5c0,12.4-10.1,22.5-22.5,22.5h-377
		C25.1,345,15,334.9,15,322.5V210h52.5c4.1,0,7.5-3.4,7.5-7.5v-165C75,25.1,85.1,15,97.5,15h377c12.4,0,22.5,10.1,22.5,22.5V262.5z"
		/>
</g>
</svg>
