<?xml version="1.0" encoding="utf-8"?>
<!-- Generator: Adobe Illustrator 22.1.0, SVG Export Plug-In . SVG Version: 6.00 Build 0)  -->
<svg version="1.1" id="Слой_1" xmlns="http://www.w3.org/2000/svg" xmlns:xlink="http://www.w3.org/1999/xlink" x="0px" y="0px"
	 viewBox="0 0 635 635" style="enable-background:new 0 0 635 635;" xml:space="preserve">
<style type="text/css">
	.st0{clip-path:url(#SVGID_2_);fill:#F6D738;}
	.st1{clip-path:url(#SVGID_2_);fill:#F3CC30;}
	.st2{clip-path:url(#SVGID_2_);fill:#EDBD31;}
	.st3{clip-path:url(#SVGID_2_);fill:#F7DB5E;}
</style>
<g>
	<defs>
		<rect id="SVGID_1_" width="635" height="635"/>
	</defs>
	<clipPath id="SVGID_2_">
		<use xlink:href="#SVGID_1_"  style="overflow:visible;"/>
	</clipPath>
	<path class="st0" d="M0,317.5C0,142.1,142.1,0,317.5,0S635,142.1,635,317.5C635,492.9,492.8,635,317.5,635S0,492.9,0,317.5"/>
	<path class="st1" d="M48,317.5C48,168.7,168.7,48,317.5,48C466.3,48,587,168.7,587,317.5C587,466.3,466.3,587,317.5,587
		C168.7,587,48,466.3,48,317.5"/>
	<path class="st2" d="M458.5,87.5c26.8,41.9,42.4,91.7,42.4,145.1c0,148.8-120.6,269.5-269.5,269.5c-51.7,0-100-14.6-141-39.8
		c47.9,74.8,131.7,124.3,227.1,124.3C466.3,586.6,587,466,587,317.2C587,220,535.6,134.9,458.5,87.5"/>
	<path class="st3" d="M95.2,342.2c0-131.4,106.5-237.9,237.9-237.9c76.8,0,145.1,36.4,188.6,92.9C480.6,125.9,403.6,77.8,315.4,77.8
		C184,77.8,77.5,184.3,77.5,315.7c0,54.6,18.4,104.9,49.3,145C106.7,425.8,95.2,385.3,95.2,342.2"/>
</g>
</svg>
