<?xml version="1.0" encoding="utf-8"?>
<!-- Generator: Adobe Illustrator 24.3.0, SVG Export Plug-In . SVG Version: 6.00 Build 0)  -->
<!DOCTYPE svg PUBLIC "-//W3C//DTD SVG 1.1//EN" "http://www.w3.org/Graphics/SVG/1.1/DTD/svg11.dtd" [
	<!ENTITY ns_extend "http://ns.adobe.com/Extensibility/1.0/">
	<!ENTITY ns_ai "http://ns.adobe.com/AdobeIllustrator/10.0/">
	<!ENTITY ns_graphs "http://ns.adobe.com/Graphs/1.0/">
	<!ENTITY ns_vars "http://ns.adobe.com/Variables/1.0/">
	<!ENTITY ns_imrep "http://ns.adobe.com/ImageReplacement/1.0/">
	<!ENTITY ns_sfw "http://ns.adobe.com/SaveForWeb/1.0/">
	<!ENTITY ns_custom "http://ns.adobe.com/GenericCustomNamespace/1.0/">
	<!ENTITY ns_adobe_xpath "http://ns.adobe.com/XPath/1.0/">
]>
<svg version="1.1" id="Capa_1" xmlns:x="&ns_extend;" xmlns:i="&ns_ai;" xmlns:graph="&ns_graphs;"
	 xmlns="http://www.w3.org/2000/svg" xmlns:xlink="http://www.w3.org/1999/xlink" x="0px" y="0px" viewBox="0 0 311.6 311.6"
	 style="enable-background:new 0 0 311.6 311.6;" xml:space="preserve">
<metadata>
	<sfw  xmlns="&ns_sfw;">
		<slices></slices>
		<sliceSourceBounds  bottomLeftOrigin="true" height="311.6" width="285.7" x="14.7" y="0"></sliceSourceBounds>
	</sfw>
</metadata>
<path d="M281.3,232c-21.4-25.1-49-44.1-71-68.5c-2.4-2.4-4.3-4.9-6.7-7.3c20.8-24.5,42.8-49,64.3-73.4c11.6-12.9,25.7-44.1,3.1-55.7
	C247,14.7,224.4,31.3,206,46c-19,15.3-36.7,32.4-52.6,50.2c-17.7-20.8-36.1-41-56.3-60c-14.7-13.5-53.9-50.8-75.9-30
	c-21.4,19,16.5,67.9,19,67.3c26.9,21.4,49.6,46.5,71.6,72.8c-28.2,36.7-53.9,75.3-82,110.8c-1.2,1.2-1.2,2.4-1.2,4.3
	c-11.6,8.6-17.7,28.2-7.3,39.2c19.6,20.8,44.7,8.6,63.6-6.7c30-23.3,54.5-56.3,78.3-87.5c18.4,20.2,37.3,39.2,59.4,55.7
	c17.7,13.5,45.9,33.7,68.5,20.2C312.5,269.9,291.7,243.6,281.3,232z"/>
</svg>
