<?xml version="1.0" encoding="utf-8"?>
<!-- Generator: Adobe Illustrator 22.1.0, SVG Export Plug-In . SVG Version: 6.00 Build 0)  -->
<svg version="1.1" id="Icons" xmlns="http://www.w3.org/2000/svg" xmlns:xlink="http://www.w3.org/1999/xlink" x="0px" y="0px"
	 viewBox="0 0 484.3 484.3" style="enable-background:new 0 0 484.3 484.3;" xml:space="preserve">
<style type="text/css">
	.st0{fill:#FFFFFF;}
</style>
<path class="st0" d="M179.9,186.8c-1.8,0-3.6-0.7-4.9-2L2,11.8C-0.6,9.1-0.6,4.7,2.2,2c2.7-2.6,6.9-2.6,9.6,0l173,173
	c2.7,2.7,2.7,7.1,0,9.8C183.5,186.1,181.7,186.8,179.9,186.8L179.9,186.8z"/>
<path class="st0" d="M6.9,92.7c-3.8,0-6.9-3.1-6.9-6.9V6.9C0,3.1,3.1,0,6.9,0h78.9c3.8,0,6.9,3.1,6.9,6.9s-3.1,6.9-6.9,6.9h-72v72
	C13.8,89.6,10.7,92.7,6.9,92.7z"/>
<path class="st0" d="M6.9,484.3c-3.8,0-6.9-3.1-6.9-6.9c0-1.8,0.7-3.6,2-4.9l173-173c2.7-2.7,7.1-2.6,9.8,0.2c2.6,2.7,2.6,6.9,0,9.6
	l-173,173C10.5,483.6,8.8,484.3,6.9,484.3z"/>
<path class="st0" d="M85.8,484.3H6.9c-3.8,0-6.9-3.1-6.9-6.9v-78.9c0-3.8,3.1-6.9,6.9-6.9s6.9,3.1,6.9,6.9v72h72
	c3.8,0,6.9,3.1,6.9,6.9C92.7,481.2,89.6,484.3,85.8,484.3z"/>
<path class="st0" d="M379.6,386.5c-1.8,0-3.6-0.7-4.9-2l-14.5-14.5c-2.7-2.7-2.6-7.1,0.2-9.8c2.7-2.6,6.9-2.6,9.6,0l14.5,14.5
	c2.7,2.7,2.7,7.1,0,9.8C383.2,385.8,381.4,386.5,379.6,386.5z"/>
<path class="st0" d="M330.3,337.2c-1.8,0-3.6-0.7-4.9-2l-25.9-25.9c-2.7-2.7-2.6-7.1,0.2-9.8c2.7-2.6,6.9-2.6,9.6,0l25.9,25.9
	c2.7,2.7,2.7,7.1,0,9.8C333.9,336.5,332.1,337.2,330.3,337.2z"/>
<path class="st0" d="M477.4,484.3c-1.8,0-3.6-0.7-4.9-2l-63.1-63.1c-2.7-2.7-2.6-7.1,0.2-9.8c2.7-2.6,6.9-2.6,9.6,0l63.1,63.1
	c2.7,2.7,2.7,7.1,0,9.8C481,483.6,479.2,484.3,477.4,484.3z"/>
<path class="st0" d="M477.4,484.3h-78.9c-3.8,0-6.9-3.1-6.9-6.9c0-3.8,3.1-6.9,6.9-6.9h72v-72c0-3.8,3.1-6.9,6.9-6.9
	c3.8,0,6.9,3.1,6.9,6.9v78.9C484.3,481.2,481.2,484.3,477.4,484.3z"/>
<path class="st0" d="M304.4,186.8c-3.8,0-6.9-3.1-6.9-6.9c0-1.8,0.7-3.6,2-4.9l173-173c2.7-2.7,7.1-2.6,9.8,0.2
	c2.6,2.7,2.6,6.9,0,9.6l-173,173C308,186.1,306.3,186.8,304.4,186.8L304.4,186.8z"/>
<path class="st0" d="M477.4,92.7c-3.8,0-6.9-3.1-6.9-6.9v-72h-72c-3.8,0-6.9-3.1-6.9-6.9s3.1-6.9,6.9-6.9h78.9
	c3.8,0,6.9,3.1,6.9,6.9v78.9C484.3,89.6,481.2,92.7,477.4,92.7z"/>
</svg>
