<?xml version="1.0" encoding="iso-8859-1"?>
<!-- Generator: Adobe Illustrator 19.0.0, SVG Export Plug-In . SVG Version: 6.00 Build 0)  -->
<svg version="1.1" id="Capa_1" xmlns="http://www.w3.org/2000/svg" xmlns:xlink="http://www.w3.org/1999/xlink" x="0px" y="0px"
	 viewBox="0 0 512 512" style="enable-background:new 0 0 512 512;" xml:space="preserve">
<g>
	<g>
		<path d="M437.02,74.98C388.667,26.628,324.38,0,256,0S123.333,26.628,74.981,74.98C26.629,123.333,0,187.621,0,256
			s26.629,132.667,74.981,181.02C123.333,485.372,187.62,512,256,512s132.667-26.628,181.02-74.98
			C485.371,388.667,512,324.38,512,256S485.371,123.333,437.02,74.98z M475.669,156.893l-55.326,22.917
			c-1.766,0.731-3.269,2.128-4.063,4.065c-0.761,1.85-0.761,3.88,0,5.729c0,0,0,0.007,0.007,0.009
			c8.605,20.804,13.213,42.919,13.213,66.393c0,22.014-4.154,44.54-13.143,66.218c-0.025,0.056-0.049,0.112-0.072,0.168
			c-0.02,0.047-0.038,0.095-0.057,0.143c-17.539,42.083-51.737,76.255-93.848,93.754c-21.09,8.761-43.43,13.21-66.38,13.21
			c-22.96,0-45.29-4.449-66.38-13.21c-42.16-17.52-76.39-51.751-93.91-93.912c-8.76-21.081-13.21-43.411-13.21-66.372
			c0-22.909,4.426-45.179,13.139-66.22c0.026-0.059,0.052-0.118,0.077-0.178c0.024-0.057,0.046-0.114,0.068-0.171
			c17.542-42.069,51.735-76.229,93.835-93.725c21.09-8.771,43.42-13.21,66.38-13.21s45.29,4.439,66.38,13.21
			c33,13.72,61.67,38.011,80.72,68.392c2.228,3.552,6.844,4.556,10.34,2.37c3.484-2.206,4.578-6.8,2.37-10.34
			c-10.34-16.481-23.109-31.231-37.96-43.841c-13.036-11.074-27.426-20.271-42.85-27.417l20.109-48.545
			C408.458,60.496,451.504,103.542,475.669,156.893z M256,15c30.002,0,58.74,5.511,85.257,15.573l-20.108,48.544
			C300.307,71.405,278.428,67.501,256,67.501c-22.428,0-44.307,3.904-65.15,11.616l-20.107-48.544C197.26,20.511,225.999,15,256,15z
			 M156.892,36.332L177,84.877c-20.156,9.344-38.496,22.171-54.22,37.895C107.349,138.205,94.412,156.441,84.875,177l-48.544-20.108
			C60.496,103.542,103.542,60.496,156.892,36.332z M15,256c0-30.002,5.511-58.741,15.573-85.258l48.542,20.107
			c-7.711,20.85-11.615,42.729-11.615,65.157c0,22.42,3.904,44.299,11.616,65.143l-48.543,20.108C20.511,314.74,15,286.001,15,256z
			 M36.331,355.107l48.546-20.109c9.457,20.399,22.338,38.654,37.903,54.22c15.532,15.531,33.777,28.427,54.22,37.905
			l-20.108,48.545C103.542,451.503,60.496,408.458,36.331,355.107z M256,497c-30.001,0-58.74-5.511-85.257-15.573l20.107-48.542
			c20.841,7.712,42.711,11.615,65.13,11.615h0.04c22.419,0,44.289-3.903,65.13-11.616l20.108,48.543
			C314.741,491.489,286.002,497,256,497z M355.108,475.668l-20.109-48.545c20.398-9.456,38.656-22.34,54.22-37.905
			c15.465-15.467,28.386-33.692,37.903-54.22l48.547,20.108C451.504,408.458,408.458,451.503,355.108,475.668z M432.882,321.149
			c7.532-20.387,11.618-42.369,11.618-65.144c0-22.438-3.904-44.318-11.616-65.155l48.543-20.108
			C491.489,197.26,497,225.998,497,256c0,30.001-5.511,58.74-15.573,85.257L432.882,321.149z"/>
	</g>
</g>
<g>
	<g>
		<path d="M315.03,200.84c-0.32-0.09-0.66-0.16-1-0.21c-0.568-0.271-3.101-0.08-4.841,0.95c-0.011,0-0.039,0.029-0.06,0.029
			c-0.021,0.011-0.03,0.021-0.05,0.04h-0.011c-2.836,1.743-4.12,5.035-3.399,8.09l0.04-0.01l-0.04,0.021
			c0.673,2.759,2.684,4.872,5.54,5.6c20.185,5.277,37.22,23.644,37.22,49.3c-0.117,35.208-37.886,60.001-71.149,44.34
			c-0.011,0-0.011-0.01-0.021-0.01c-1.221-0.59-2.647-0.939-4.14-0.939c-7.847,0-12.314,9.09-7.551,15.239
			c0.133,0.176,13.2,17.41,13.341,17.58c1.76,2.296,0.303,5.598-2.75,5.67c-44.105,0-41.355,0.412-42.831-1.04
			c-0.978-1.025-1.56-2.904-0.24-4.63c0.021-0.027,13.314-17.539,13.33-17.569c5.97-7.769-2.653-18.617-11.65-14.301
			c-28.229,13.394-65.72-2.029-71.02-40.189c-2.381-25.584,14.038-47.018,36.28-53.23c3.2-0.899,5.45-3.84,5.48-7.159
			c0.26-27.244,22.616-49.511,49.99-49.511c17.78,0,33.85,9.141,42.979,24.46c2.049,3.458,6.617,4.772,10.271,2.601
			c3.611-2.131,4.71-6.773,2.609-10.28c-21.02-35.347-69.355-42.583-99.77-14.7c-11.92,10.931-19.31,25.79-20.8,41.83
			c-12.209,4.556-22.804,12.694-30.4,23.43c-11.338,16.037-14.345,35.145-10,53.08c0.013,0,0.017,0.047,0.02,0.061
			c8.367,33.915,41.234,53.8,73.7,48.51c-3.299,4.352-6.824,8.159-6.79,15.09c0.021,10.041,8.04,18.55,18.44,18.55h40.48
			c10.373,0,18.419-8.501,18.439-18.55c0.017-6.929-3.451-10.702-6.82-15.14c25.631,4.272,51.933-7.218,66.021-30.09
			c0.03-0.04,0.05-0.08,0.07-0.12C376.682,260.758,357.115,211.896,315.03,200.84z"/>
	</g>
</g>
<g>
</g>
<g>
</g>
<g>
</g>
<g>
</g>
<g>
</g>
<g>
</g>
<g>
</g>
<g>
</g>
<g>
</g>
<g>
</g>
<g>
</g>
<g>
</g>
<g>
</g>
<g>
</g>
<g>
</g>
</svg>
