<svg height="496pt" viewBox="0 0 496 496" width="496pt" xmlns="http://www.w3.org/2000/svg"><path d="m496 184c0-12.273438-4.976562-24.289062-13.65625-32.96875l-137.375-137.375c-8.679688-8.679688-20.695312-13.65625-32.96875-13.65625s-24.289062 4.976562-32.96875 13.65625l-39.03125 39.03125-24-24-75.3125 75.3125 24 24-151.03125 151.03125c-8.679688 8.679688-13.65625 20.695312-13.65625 32.96875s4.976562 24.289062 13.65625 32.96875l137.375 137.375c8.679688 8.679688 20.695312 13.65625 32.96875 13.65625s24.289062-4.976562 32.96875-13.65625l183.03125-183.03125 24 24 51.3125-51.3125-24-24 31.03125-31.03125c8.679688-8.679688 13.65625-20.695312 13.65625-32.96875zm-99.3125 0h16l40 40-220.6875 220.6875-180.6875-180.6875 220.6875-220.6875 40 40v16zm-168-120-20.6875 20.6875-12.6875-12.6875 20.6875-20.6875zm-65.375 40 20.6875-20.6875 12.6875 12.6875-20.6875 20.6875zm42.34375 367.03125c-5.703125 5.703125-13.59375 8.96875-21.65625 8.96875s-15.953125-3.265625-21.65625-8.96875l-137.375-137.375c-5.703125-5.703125-8.96875-13.59375-8.96875-21.65625s3.265625-15.953125 8.96875-21.65625l15.03125-15.03125 180.6875 180.6875zm247.03125-199.03125-28.6875 28.6875-12.6875-12.6875 28.6875-28.6875zm18.34375-66.34375-7.03125 7.03125-44.6875-44.6875h-16l-75.3125-75.3125v-16l-44.6875-44.6875 7.03125-7.03125c5.703125-5.703125 13.59375-8.96875 21.65625-8.96875s15.953125 3.265625 21.65625 8.96875l137.375 137.375c5.703125 5.703125 8.96875 13.59375 8.96875 21.65625s-3.265625 15.953125-8.96875 21.65625zm0 0"/><path d="m244.6875 152-92.6875 92.6875c-5.160156 5.160156-8 12.015625-8 19.3125s2.839844 14.160156 8 19.3125l60.6875 60.6875c5.160156 5.160156 12.015625 8 19.3125 8s14.160156-2.839844 19.3125-8l92.6875-92.6875c5.160156-5.160156 8-12.015625 8-19.3125s-2.839844-14.160156-8-19.3125l-60.6875-60.6875c-10.3125-10.3125-28.3125-10.3125-38.625 0zm88 72c2.136719 2.144531 3.3125 4.976562 3.3125 8s-1.175781 5.855469-3.3125 8l-92.6875 92.6875c-4.28125 4.265625-11.71875 4.265625-16 0l-60.6875-60.6875c-2.136719-2.144531-3.3125-4.976562-3.3125-8s1.175781-5.855469 3.3125-8l92.6875-92.6875c2.144531-2.136719 4.976562-3.3125 8-3.3125s5.855469 1.175781 8 3.3125zm0 0"/><path d="m76.6875 264 155.3125 155.3125 187.3125-187.3125-155.3125-155.3125zm155.3125 132.6875-132.6875-132.6875 164.6875-164.6875 132.6875 132.6875zm0 0"/><path d="m90.339844 373.65625 11.3125-11.316406 36 36-11.3125 11.316406zm0 0"/><path d="m362.34375 101.660156 11.3125-11.3125 32 32-11.3125 11.3125zm0 0"/><path d="m424 144c0 4.417969-3.582031 8-8 8s-8-3.582031-8-8 3.582031-8 8-8 8 3.582031 8 8zm0 0"/><path d="m360 80c0 4.417969-3.582031 8-8 8s-8-3.582031-8-8 3.582031-8 8-8 8 3.582031 8 8zm0 0"/><path d="m208 236c0 11 6.398438 20.464844 15.648438 25.039062l-13.304688 13.304688 11.3125 11.3125 13.304688-13.304688c4.574218 9.25 14.039062 15.648438 25.039062 15.648438 15.441406 0 28-12.558594 28-28v-52h-52c-15.441406 0-28 12.558594-28 28zm64 24c0 6.617188-5.382812 12-12 12s-12-5.382812-12-12v-12h-12c-6.617188 0-12-5.382812-12-12s5.382812-12 12-12h36zm0 0"/></svg>