<?xml version="1.0" encoding="utf-8"?>
<!-- Generator: Adobe Illustrator 24.3.0, SVG Export Plug-In . SVG Version: 6.00 Build 0)  -->
<!DOCTYPE svg PUBLIC "-//W3C//DTD SVG 1.1//EN" "http://www.w3.org/Graphics/SVG/1.1/DTD/svg11.dtd" [
	<!ENTITY ns_extend "http://ns.adobe.com/Extensibility/1.0/">
	<!ENTITY ns_ai "http://ns.adobe.com/AdobeIllustrator/10.0/">
	<!ENTITY ns_graphs "http://ns.adobe.com/Graphs/1.0/">
	<!ENTITY ns_vars "http://ns.adobe.com/Variables/1.0/">
	<!ENTITY ns_imrep "http://ns.adobe.com/ImageReplacement/1.0/">
	<!ENTITY ns_sfw "http://ns.adobe.com/SaveForWeb/1.0/">
	<!ENTITY ns_custom "http://ns.adobe.com/GenericCustomNamespace/1.0/">
	<!ENTITY ns_adobe_xpath "http://ns.adobe.com/XPath/1.0/">
]>
<svg version="1.1" id="Слой_1" xmlns:x="&ns_extend;" xmlns:i="&ns_ai;" xmlns:graph="&ns_graphs;"
	 xmlns="http://www.w3.org/2000/svg" xmlns:xlink="http://www.w3.org/1999/xlink" x="0px" y="0px" viewBox="0 0 512 512"
	 style="enable-background:new 0 0 512 512;" xml:space="preserve">
<metadata>
	<sfw  xmlns="&ns_sfw;">
		<slices></slices>
		<sliceSourceBounds  bottomLeftOrigin="true" height="512" width="512" x="0" y="0"></sliceSourceBounds>
	</sfw>
</metadata>
<path class="st0" d="M17.1,42.7v426.7H0V42.7H17.1z"/>
<path class="st1" d="M294.5,66.1c3.3-3.9,10.4-16-4.9-26.4c-7-4.3-23.5-9.2-28.6,1.7c-10.1,21.6-34.6-2.5-47.3,14.9
	c-3.3,3.3-3.3,8.7,0,12.1l19.4,19.4l-5.4,5.3c-2.4,2.1-3.4,5.4-2.6,8.4c0.8,3.1,3.2,5.5,6.2,6.2c3.1,0.8,6.3-0.3,8.4-2.6l5.4-5.3
	l19.4,19.4c3.3,3.3,9.2,3.8,12.1,0C294.1,95.9,268.5,96.3,294.5,66.1z M284.7,67.6l-1.8,1.7c-6.9,6.4-9.6,16.1-7,25.1
	c0.3,1.6,0.6,3.4,0.8,5.6c-0.1,4.4-1.5,8.7-4,12.4l-51.7-51.4c3.7-2.5,8-3.9,12.4-4c1.9,0.2,3.8,0.4,5.6,0.8c9,2.6,18.8-0.1,25.2-7
	l2.7-2.7c2.7-2.7,6.4-4,10.2-3.7c3.9,0.3,7.5,2.4,9.8,5.6C290.5,55.6,289.6,63,284.7,67.6z"/>
<path class="st1" d="M116.2,184c3.3-3.9,10.4-16-4.9-26.4c-7-4.3-23.5-9.2-28.6,1.7c-10.1,21.6-34.6-2.5-47.3,14.9
	c-3.3,3.3-3.3,8.7,0,12.1l19.4,19.4l-5.4,5.3c-2.4,2.1-3.4,5.4-2.6,8.4c0.8,3.1,3.2,5.5,6.2,6.2c3.1,0.8,6.3-0.3,8.4-2.6l5.4-5.3
	l19.4,19.4c3.3,3.3,9.2,3.8,12.1,0C115.8,213.8,90.1,214.2,116.2,184z M106.4,185.5l-1.8,1.7c-6.9,6.4-9.6,16.1-7,25.1
	c0.3,1.6,0.6,3.4,0.8,5.6c-0.1,4.4-1.5,8.7-4,12.4l-51.7-51.4c3.7-2.5,8-3.9,12.4-4c1.9,0.2,3.8,0.4,5.6,0.8c9,2.6,18.8-0.1,25.2-7
	l2.7-2.7c2.7-2.7,6.4-4,10.2-3.7c3.9,0.3,7.5,2.4,9.8,5.6C112.2,173.6,111.3,180.9,106.4,185.5z"/>
<path class="st1" d="M294.5,419.6c3.3-3.9,10.4-16-4.9-26.4c-7-4.3-23.5-9.2-28.6,1.7c-10.1,21.6-34.6-2.5-47.3,14.9
	c-3.3,3.3-3.3,8.7,0,12.1l19.4,19.4l-5.4,5.3c-2.4,2.1-3.4,5.4-2.6,8.4c0.8,3.1,3.2,5.5,6.2,6.2c3.1,0.8,6.3-0.3,8.4-2.6l5.4-5.3
	l19.4,19.4c3.3,3.3,9.2,3.8,12.1,0C294.1,449.4,268.5,449.8,294.5,419.6z M284.7,421.1l-1.8,1.7c-6.9,6.4-9.6,16.1-7,25.1
	c0.3,1.6,0.6,3.4,0.8,5.6c-0.1,4.4-1.5,8.7-4,12.4l-51.7-51.4c3.7-2.5,8-3.9,12.4-4c1.9,0.2,3.8,0.4,5.6,0.8c9,2.6,18.8-0.1,25.2-7
	l2.7-2.7c2.7-2.7,6.4-4,10.2-3.7c3.9,0.3,7.5,2.4,9.8,5.6C290.5,409.1,289.6,416.5,284.7,421.1z"/>
<path class="st1" d="M471,419.6c3.3-3.9,10.4-16-4.9-26.4c-7-4.3-23.5-9.2-28.6,1.7c-10.1,21.6-34.6-2.5-47.3,14.9
	c-3.3,3.3-3.3,8.7,0,12.1l19.4,19.4l-5.4,5.3c-2.4,2.1-3.4,5.4-2.6,8.4c0.8,3.1,3.2,5.5,6.2,6.2c3.1,0.8,6.3-0.3,8.4-2.6l5.4-5.3
	l19.4,19.4c3.3,3.3,9.2,3.8,12.1,0C470.6,449.4,445,449.8,471,419.6z M461.2,421.1l-1.8,1.7c-6.9,6.4-9.6,16.1-7,25.1
	c0.3,1.6,0.6,3.4,0.8,5.6c-0.1,4.4-1.5,8.7-4,12.4l-51.7-51.4c3.7-2.5,8-3.9,12.4-4c1.9,0.2,3.8,0.4,5.6,0.8c9,2.6,18.8-0.1,25.2-7
	l2.7-2.7c2.7-2.7,6.4-4,10.2-3.7c3.9,0.3,7.5,2.4,9.8,5.6C467,409.1,466.1,416.5,461.2,421.1z"/>
<path class="st1" d="M202.9,187.9c-3.9,0.9-6.7,4.3-6.7,8.3s2.8,7.5,6.7,8.3c1.6,1.8,3.1,3.7,4.5,5.6c8,10.8,21.5,28.7,48.5,28.7
	s40.5-18,48.5-28.7c1.4-2,2.9-3.8,4.5-5.6c3.9-0.9,6.7-4.3,6.7-8.3s-2.8-7.5-6.7-8.3c-1.6-1.8-3.1-3.7-4.5-5.6
	c-8-10.7-21.5-28.7-48.5-28.7s-40.5,18-48.5,28.7C206.1,184.3,204.5,186.1,202.9,187.9z M214.6,191.8c8.8-11.8,19.8-26.4,42.2-26.4
	s33.3,14.7,42.2,26.4c1.2,1.6,2.3,3.1,3.4,4.5c-1.1,1.4-2.3,3-3.4,4.5c-8.8,11.8-19.8,26.4-42.2,26.4s-33.3-14.7-42.2-26.4
	c-1.2-1.6-2.3-3.1-3.4-4.5C212.3,194.8,213.5,193.3,214.6,191.8z"/>
<path class="st1" d="M33.2,298.9c-3.9,0.9-6.7,4.3-6.7,8.3s2.8,7.5,6.7,8.3c1.6,1.8,3.1,3.7,4.5,5.6c8,10.8,21.5,28.7,48.5,28.7
	s40.5-18,48.5-28.7c1.4-2,2.9-3.8,4.5-5.6c3.9-0.9,6.7-4.3,6.7-8.3s-2.8-7.5-6.7-8.3c-1.6-1.8-3.1-3.7-4.5-5.6
	c-8-10.7-21.5-28.7-48.5-28.7s-40.5,18-48.5,28.7C36.4,295.2,34.8,297.1,33.2,298.9z M44.9,302.7c8.8-11.8,19.8-26.4,42.2-26.4
	s33.3,14.7,42.2,26.4c1.2,1.6,2.3,3.1,3.4,4.5c-1.1,1.4-2.3,3-3.4,4.5c-8.8,11.8-19.8,26.4-42.2,26.4s-33.3-14.7-42.2-26.4
	c-1.2-1.6-2.3-3.1-3.4-4.5C42.6,305.8,43.8,304.2,44.9,302.7z"/>
<path class="st1" d="M373.6,69.6c-3.9,0.9-6.7,4.3-6.7,8.3s2.8,7.5,6.7,8.3c1.6,1.8,3.1,3.7,4.5,5.6c8,10.8,21.5,28.7,48.5,28.7
	s40.5-18,48.5-28.7c1.4-2,2.9-3.8,4.5-5.6c3.9-0.9,6.7-4.3,6.7-8.3s-2.8-7.5-6.7-8.3c-1.6-1.8-3.1-3.7-4.5-5.6
	c-8-10.7-21.5-28.7-48.5-28.7s-40.5,18-48.5,28.7C376.7,65.9,375.2,67.8,373.6,69.6z M385.3,73.4c8.8-11.8,19.8-26.4,42.2-26.4
	c22.4,0,33.3,14.7,42.2,26.4c1.2,1.6,2.3,3.1,3.4,4.5c-1.1,1.4-2.3,3-3.4,4.5c-8.8,11.8-19.8,26.4-42.2,26.4
	c-22.4,0-33.3-14.7-42.2-26.4c-1.2-1.6-2.3-3.1-3.4-4.5C383,76.5,384.1,75,385.3,73.4z"/>
<path class="st1" d="M332.8,443.7c0,4.7,3.8,8.5,8.5,8.5c4.7,0,8.5-3.8,8.5-8.5v-25.6c0-4.7-3.8-8.5-8.5-8.5c-4.7,0-8.5,3.8-8.5,8.5
	V443.7z"/>
<path class="st1" d="M332.8,384c0,4.7,3.8,8.5,8.5,8.5c4.7,0,8.5-3.8,8.5-8.5v-25.6c0-4.7-3.8-8.5-8.5-8.5c-4.7,0-8.5,3.8-8.5,8.5
	V384z"/>
<path class="st1" d="M332.8,324.3c0,4.7,3.8,8.5,8.5,8.5c4.7,0,8.5-3.8,8.5-8.5v-25.6c0-4.7-3.8-8.5-8.5-8.5c-4.7,0-8.5,3.8-8.5,8.5
	V324.3z"/>
<path class="st1" d="M332.8,264.5c0,4.7,3.8,8.5,8.5,8.5c4.7,0,8.5-3.8,8.5-8.5v-25.6c0-4.7-3.8-8.5-8.5-8.5c-4.7,0-8.5,3.8-8.5,8.5
	V264.5z"/>
<path class="st1" d="M332.8,204.8c0,4.7,3.8,8.5,8.5,8.5c4.7,0,8.5-3.8,8.5-8.5v-25.6c0-4.7-3.8-8.5-8.5-8.5c-4.7,0-8.5,3.8-8.5,8.5
	V204.8z"/>
<path class="st1" d="M332.8,145.1c0,4.7,3.8,8.5,8.5,8.5c4.7,0,8.5-3.8,8.5-8.5v-25.6c0-4.7-3.8-8.5-8.5-8.5c-4.7,0-8.5,3.8-8.5,8.5
	V145.1z"/>
<path class="st1" d="M341.3,93.9c4.7,0,8.5-3.8,8.5-8.5V59.7c0-4.7-3.8-8.5-8.5-8.5c-4.7,0-8.5,3.8-8.5,8.5v25.6
	C332.8,90,336.6,93.9,341.3,93.9z"/>
<path class="st1" d="M162.1,443.7c0,4.7,3.8,8.5,8.5,8.5c4.7,0,8.5-3.8,8.5-8.5v-25.6c0-4.7-3.8-8.5-8.5-8.5c-4.7,0-8.5,3.8-8.5,8.5
	V443.7z"/>
<path class="st1" d="M162.1,384c0,4.7,3.8,8.5,8.5,8.5c4.7,0,8.5-3.8,8.5-8.5v-25.6c0-4.7-3.8-8.5-8.5-8.5c-4.7,0-8.5,3.8-8.5,8.5
	V384z"/>
<path class="st1" d="M162.1,324.3c0,4.7,3.8,8.5,8.5,8.5c4.7,0,8.5-3.8,8.5-8.5v-25.6c0-4.7-3.8-8.5-8.5-8.5c-4.7,0-8.5,3.8-8.5,8.5
	V324.3z"/>
<path class="st1" d="M162.1,264.5c0,4.7,3.8,8.5,8.5,8.5c4.7,0,8.5-3.8,8.5-8.5v-25.6c0-4.7-3.8-8.5-8.5-8.5c-4.7,0-8.5,3.8-8.5,8.5
	V264.5z"/>
<path class="st1" d="M162.1,204.8c0,4.7,3.8,8.5,8.5,8.5c4.7,0,8.5-3.8,8.5-8.5v-25.6c0-4.7-3.8-8.5-8.5-8.5c-4.7,0-8.5,3.8-8.5,8.5
	V204.8z"/>
<path class="st1" d="M162.1,145.1c0,4.7,3.8,8.5,8.5,8.5c4.7,0,8.5-3.8,8.5-8.5v-25.6c0-4.7-3.8-8.5-8.5-8.5c-4.7,0-8.5,3.8-8.5,8.5
	V145.1z"/>
<path class="st1" d="M170.7,93.9c4.7,0,8.5-3.8,8.5-8.5V59.7c0-4.7-3.8-8.5-8.5-8.5c-4.7,0-8.5,3.8-8.5,8.5v25.6
	C162.1,90,166,93.9,170.7,93.9z"/>
<path class="st1" d="M475.4,162.5c-3.3-3.3-8.7-3.3-12.1,0c-4.9,5.6-12.1,8.6-19.6,8.1c0-10.3-6.2-19.7-15.7-23.7
	s-20.5-1.8-27.9,5.4c-7.3,7.3-9.6,18.3-5.7,27.8c-10.2,2.7-17.8,11.5-18.9,22c-1.1,10.5,4.4,20.7,13.9,25.5
	c9.5,4.8,20.9,3.2,28.7-3.9c10.2,9.2,25.9,8.6,35.5-1.3s9.5-25.6-0.1-35.5c8.4-1.9,16-6.2,21.9-12.4
	C478.7,171.2,478.7,165.8,475.4,162.5z M418.3,154.4c7.4,0,13.4,6,13.4,13.4c0,7.4-6,13.4-13.4,13.4c-7.4,0-13.4-6-13.4-13.4
	C404.9,160.4,410.9,154.4,418.3,154.4z M399.7,218.6c-7.4,0-13.4-6-13.4-13.4c0-7.4,6-13.4,13.4-13.4c7.4,0,13.4,6,13.4,13.4
	C413.1,212.6,407.1,218.6,399.7,218.6z M437.1,217.6c-7.4,0-13.4-6-13.4-13.4c0-7.4,6-13.4,13.4-13.4c7.4,0,13.4,6,13.4,13.4
	C450.5,211.6,444.5,217.6,437.1,217.6z"/>
<path class="st1" d="M475.4,282c-3.3-3.3-8.7-3.3-12.1,0c-4.9,5.6-12.1,8.6-19.6,8.1c0-10.3-6.2-19.7-15.7-23.7s-20.5-1.8-27.9,5.4
	c-7.3,7.3-9.6,18.3-5.7,27.8c-10.2,2.7-17.8,11.5-18.9,22c-1.1,10.5,4.4,20.7,13.9,25.5c9.5,4.8,20.9,3.2,28.7-3.9
	c10.2,9.2,25.9,8.6,35.5-1.3s9.5-25.6-0.1-35.5c8.4-1.9,16-6.2,21.9-12.4C478.7,290.8,478.7,285.4,475.4,282z M418.3,274
	c7.4,0,13.4,6,13.4,13.4c0,7.4-6,13.4-13.4,13.4c-7.4,0-13.4-6-13.4-13.4C404.9,280,410.9,274,418.3,274z M399.7,338.1
	c-7.4,0-13.4-6-13.4-13.4c0-7.4,6-13.4,13.4-13.4c7.4,0,13.4,6,13.4,13.4C413.1,332.1,407.1,338.1,399.7,338.1z M437.1,337.1
	c-7.4,0-13.4-6-13.4-13.4c0-7.4,6-13.4,13.4-13.4c7.4,0,13.4,6,13.4,13.4C450.5,331.1,444.5,337.1,437.1,337.1z"/>
<path class="st1" d="M125.5,393.1c-3.3-3.3-8.7-3.3-12.1,0c-4.9,5.6-12.1,8.6-19.6,8.1c0-10.3-6.2-19.7-15.7-23.7
	s-20.5-1.8-27.9,5.4c-7.3,7.3-9.6,18.3-5.7,27.8c-10.2,2.7-17.8,11.5-18.9,22c-1.1,10.5,4.4,20.7,13.9,25.5
	c9.5,4.8,20.9,3.2,28.7-3.9c10.2,9.2,25.9,8.6,35.5-1.3s9.5-25.6-0.1-35.5c8.4-1.9,16-6.2,21.9-12.4
	C128.9,401.8,128.9,396.4,125.5,393.1z M68.4,385c7.4,0,13.4,6,13.4,13.4c0,7.4-6,13.4-13.4,13.4c-7.4,0-13.4-6-13.4-13.4
	C55.1,391,61.1,385,68.4,385z M49.9,449.1c-7.4,0-13.4-6-13.4-13.4c0-7.4,6-13.4,13.4-13.4c7.4,0,13.4,6,13.4,13.4
	C63.3,443.2,57.3,449.1,49.9,449.1z M87.3,448.1c-7.4,0-13.4-6-13.4-13.4c0-7.4,6-13.4,13.4-13.4c7.4,0,13.4,6,13.4,13.4
	C100.7,442.2,94.7,448.1,87.3,448.1z"/>
<path class="st1" d="M125.5,51.6c-3.3-3.3-8.7-3.3-12.1,0c-4.9,5.6-12.1,8.6-19.6,8.1c0-10.3-6.2-19.7-15.7-23.7s-20.5-1.8-27.9,5.4
	c-7.3,7.3-9.6,18.3-5.7,27.8c-10.2,2.7-17.8,11.5-18.9,22c-1.1,10.5,4.4,20.7,13.9,25.5c9.5,4.8,20.9,3.2,28.7-3.9
	c10.2,9.2,25.9,8.6,35.5-1.3s9.5-25.6-0.1-35.5c8.4-1.9,16-6.2,21.9-12.4C128.9,60.3,128.9,54.9,125.5,51.6z M68.4,43.5
	c7.4,0,13.4,6,13.4,13.4c0,7.4-6,13.4-13.4,13.4c-7.4,0-13.4-6-13.4-13.4C55.1,49.5,61.1,43.5,68.4,43.5z M49.9,107.7
	c-7.4,0-13.4-6-13.4-13.4c0-7.4,6-13.4,13.4-13.4c7.4,0,13.4,6,13.4,13.4C63.3,101.7,57.3,107.7,49.9,107.7z M87.3,106.7
	c-7.4,0-13.4-6-13.4-13.4c0-7.4,6-13.4,13.4-13.4c7.4,0,13.4,6,13.4,13.4C100.7,100.7,94.7,106.7,87.3,106.7z"/>
<path class="st1" d="M8.5,119.5c2.3,0,4.4-0.9,6.1-2.5c3.3-3.4,3.3-8.8,0-12.1l-1.3-1c-0.5-0.3-1-0.6-1.5-0.8
	c-0.5-0.2-1-0.4-1.5-0.5c-0.6-0.1-1.1-0.2-1.7-0.2c-2.3,0-4.4,0.9-6.1,2.5c-0.8,0.8-1.4,1.8-1.8,2.8c-1.3,3.2-0.6,6.8,1.8,9.3
	c0.8,0.8,1.8,1.4,2.8,1.8C6.3,119.2,7.4,119.5,8.5,119.5z"/>
<path class="st1" d="M469.3,0H42.7C19.1,0,0,19.1,0,42.7v34.1c0,4.7,3.8,8.5,8.5,8.5c4.7,0,8.5-3.8,8.5-8.5V42.7
	c0-14.1,11.5-25.6,25.6-25.6h119.5v8.5c0,4.7,3.8,8.5,8.5,8.5c4.7,0,8.5-3.8,8.5-8.5v-8.5h153.6v8.5c0,4.7,3.8,8.5,8.5,8.5
	c4.7,0,8.5-3.8,8.5-8.5v-8.5h119.5c14.1,0,25.6,11.5,25.6,25.6v426.7c0,14.1-11.5,25.6-25.6,25.6H349.9v-17.1c0-4.7-3.8-8.5-8.5-8.5
	c-4.7,0-8.5,3.8-8.5,8.5v17.1H179.2v-17.1c0-4.7-3.8-8.5-8.5-8.5c-4.7,0-8.5,3.8-8.5,8.5v17.1H42.7c-14.1,0-25.6-11.5-25.6-25.6
	V145.1c0-4.7-3.8-8.5-8.5-8.5c-4.7,0-8.5,3.8-8.5,8.5v324.3C0,492.9,19.1,512,42.7,512h426.7c23.6,0,42.6-19.1,42.7-42.7V42.7
	C512,19.1,492.9,0,469.3,0z"/>
</svg>
