<?xml version="1.0" encoding="utf-8"?>
<!-- Generator: Adobe Illustrator 22.1.0, SVG Export Plug-In . SVG Version: 6.00 Build 0)  -->
<svg version="1.1" id="Capa_1" xmlns="http://www.w3.org/2000/svg" xmlns:xlink="http://www.w3.org/1999/xlink" x="0px" y="0px"
	 viewBox="0 0 469.3 512" style="enable-background:new 0 0 469.3 512;" xml:space="preserve">
<g>
	<g>
		<path d="M66.1,507.3L66.1,507.3c69.9-34.1,169.1-91.2,256.5-141.6c45.8-26.4,89.1-51.3,122-69.3c15.5-8.5,24.8-23.6,24.8-40.4
			s-9.3-31.9-24.8-40.4c-32.9-18-76.1-42.9-121.9-69.3C235.2,95.9,136,38.8,66.1,4.7C59.7,1.6,53,0,46.1,0C20.7,0,0,20.5,0,45.7
			L0,256l0,210.3C0,491.5,20.7,512,46.1,512C53,512,59.7,510.4,66.1,507.3z"/>
	</g>
</g>
</svg>
