<svg height="852pt" viewBox="-26 -26 852.50017 852" width="852pt" xmlns="http://www.w3.org/2000/svg"><path d="m770.824219 451.332031v-242.207031c18.347656-6.488281 29.351562-25.25 26.070312-44.433594-3.292969-19.183594-19.925781-33.207031-39.390625-33.207031-19.457031 0-36.09375 14.023437-39.386718 33.207031-3.292969 19.183594 7.722656 37.945313 26.070312 44.433594v189.277344c-11.464844-8.816406-25.503906-13.617188-39.964844-13.664063h-13.320312v-133.203125c-.15625-139.707031-113.375-252.929687-253.082032-253.089844h-79.925781c-139.707031.160157-252.925781 113.382813-253.082031 253.089844v249.738282l-105 196.878906c-.121094.234375-.164062.488281-.269531.730468-.109375.234376-.257813.640626-.371094.96875-.503906 1.347657-.789063 2.765626-.84375 4.191407-.027344.132812-.058594.253906-.078125.382812v53.277344c0 22.070313 17.890625 39.960937 39.960938 39.960937h719.292968c22.074219 0 39.960938-17.890624 39.960938-39.960937v-53.277344c-.019532-.128906-.050782-.25-.078125-.382812-.054688-1.425781-.339844-2.84375-.84375-4.191407-.113281-.328124-.226563-.652343-.371094-.96875-.144531-.324218-.144531-.496093-.269531-.730468l-96.109375-180.214844h4.429687c36.769532-.042969 66.558594-29.832031 66.601563-66.605469zm-13.320313-293.039062c7.359375 0 13.320313 5.96875 13.320313 13.320312 0 7.359375-5.960938 13.320313-13.320313 13.320313-7.355468 0-13.316406-5.960938-13.316406-13.320313 0-7.351562 5.960938-13.320312 13.316406-13.320312zm-626.050781 93.242187c.140625-125 101.441406-226.308594 226.441406-226.445312h79.925781c125 .136718 226.304688 101.445312 226.445313 226.445312v133.203125h-133.207031v-228.988281c-.019532-20.65625-16.757813-37.390625-37.414063-37.417969h-191.574219c-20.648437.027344-37.394531 16.761719-37.414062 37.417969v228.988281h-133.203125zm372.96875-95.785156v228.988281h-213.121094v-228.988281c0-5.953125 4.820313-10.777344 10.769531-10.777344h191.574219c5.953125 0 10.777344 4.824219 10.777344 10.777344zm-372.96875 255.628906h532.8125v79.921875h-532.8125zm639.371094 346.324219c0 7.355469-5.960938 13.316406-13.320313 13.316406h-719.292968c-7.355469 0-13.320313-5.960937-13.320313-13.316406v-39.960937h745.933594zm-8.882813-66.601563h-728.167968l92.355468-173.164062h543.457032zm-71.039062-199.800781v-79.921875h13.320312c22.070313 0 39.964844 17.890625 39.964844 39.953125 0 22.074219-17.894531 39.96875-39.964844 39.96875zm0 0"/><path d="m198.054688 571.222656h-53.28125c-22.074219 0-39.960938 17.886719-39.960938 39.960938 0 22.066406 17.886719 39.953125 39.960938 39.953125h53.28125c22.070312 0 39.960937-17.886719 39.960937-39.953125 0-22.074219-17.890625-39.960938-39.960937-39.960938zm0 53.277344h-53.28125c-7.355469 0-13.320313-5.960938-13.320313-13.316406 0-7.363282 5.964844-13.324219 13.320313-13.324219h53.28125c7.351562 0 13.324218 5.960937 13.324218 13.324219 0 7.355468-5.972656 13.316406-13.324218 13.316406zm0 0"/><path d="m371.214844 571.222656h-53.277344c-22.070312 0-39.964844 17.886719-39.964844 39.960938 0 22.066406 17.894532 39.953125 39.964844 39.953125h53.277344c22.070312 0 39.96875-17.886719 39.96875-39.953125 0-22.074219-17.898438-39.960938-39.96875-39.960938zm0 53.277344h-53.277344c-7.359375 0-13.320312-5.960938-13.320312-13.316406 0-7.363282 5.960937-13.324219 13.320312-13.324219h53.277344c7.359375 0 13.320312 5.960937 13.320312 13.324219 0 7.355468-5.960937 13.316406-13.320312 13.316406zm0 0"/><path d="m544.382812 571.222656h-53.277343c-22.074219 0-39.96875 17.886719-39.96875 39.960938 0 22.066406 17.894531 39.953125 39.96875 39.953125h53.277343c22.066407 0 39.957032-17.886719 39.957032-39.953125 0-22.074219-17.890625-39.960938-39.957032-39.960938zm0 53.277344h-53.277343c-7.363281 0-13.328125-5.960938-13.328125-13.316406 0-7.363282 5.964844-13.324219 13.328125-13.324219h53.277343c7.351563 0 13.316407 5.960937 13.316407 13.324219 0 7.355468-5.964844 13.316406-13.316407 13.316406zm0 0"/><path d="m610.988281 611.183594c0 22.066406 17.886719 39.953125 39.953125 39.953125 22.074219 0 39.960938-17.886719 39.960938-39.953125 0-22.074219-17.886719-39.960938-39.960938-39.960938-22.066406 0-39.953125 17.886719-39.953125 39.960938zm53.277344 0c0 7.355468-5.960937 13.316406-13.324219 13.316406-7.355468 0-13.316406-5.960938-13.316406-13.316406 0-7.363282 5.960938-13.324219 13.316406-13.324219 7.363282 0 13.324219 5.960937 13.324219 13.324219zm0 0"/><path d="m198.054688 451.332031c0 7.363281-5.964844 13.328125-13.320313 13.328125s-13.316406-5.964844-13.316406-13.328125c0-7.351562 5.960937-13.316406 13.316406-13.316406s13.320313 5.964844 13.320313 13.316406zm0 0"/><path d="m251.335938 451.332031c0 7.363281-5.960938 13.328125-13.320313 13.328125-7.355469 0-13.320313-5.964844-13.320313-13.328125 0-7.351562 5.964844-13.316406 13.320313-13.316406 7.359375 0 13.320313 5.964844 13.320313 13.316406zm0 0"/><path d="m304.617188 451.332031c0 7.363281-5.964844 13.328125-13.316407 13.328125-7.363281 0-13.328125-5.964844-13.328125-13.328125 0-7.351562 5.964844-13.316406 13.328125-13.316406 7.351563 0 13.316407 5.964844 13.316407 13.316406zm0 0"/><path d="m357.894531 451.332031c0 7.363281-5.960937 13.328125-13.316406 13.328125-7.359375 0-13.320313-5.964844-13.320313-13.328125 0-7.351562 5.960938-13.316406 13.320313-13.316406 7.355469 0 13.316406 5.964844 13.316406 13.316406zm0 0"/><path d="m411.183594 451.332031c0 7.363281-5.972656 13.328125-13.324219 13.328125-7.355469 0-13.324219-5.964844-13.324219-13.328125 0-7.351562 5.96875-13.316406 13.324219-13.316406 7.351563 0 13.324219 5.964844 13.324219 13.316406zm0 0"/><path d="m464.460938 451.332031c0 7.363281-5.960938 13.328125-13.324219 13.328125-7.347657 0-13.316407-5.964844-13.316407-13.328125 0-7.351562 5.96875-13.316406 13.316407-13.316406 7.363281 0 13.324219 5.964844 13.324219 13.316406zm0 0"/><path d="m517.742188 451.332031c0 7.363281-5.964844 13.328125-13.320313 13.328125s-13.316406-5.964844-13.316406-13.328125c0-7.351562 5.960937-13.316406 13.316406-13.316406s13.320313 5.964844 13.320313 13.316406zm0 0"/><path d="m571.019531 451.332031c0 7.363281-5.960937 13.328125-13.320312 13.328125-7.355469 0-13.316407-5.964844-13.316407-13.328125 0-7.351562 5.960938-13.316406 13.316407-13.316406 7.359375 0 13.320312 5.964844 13.320312 13.316406zm0 0"/><path d="m624.304688 451.332031c0 7.363281-5.964844 13.328125-13.316407 13.328125-7.363281 0-13.328125-5.964844-13.328125-13.328125 0-7.351562 5.964844-13.316406 13.328125-13.316406 7.351563 0 13.316407 5.964844 13.316407 13.316406zm0 0"/><path d="m104.8125 65.050781c5.390625 0 10.242188-3.242187 12.300781-8.222656 2.066407-4.976563.921875-10.703125-2.882812-14.511719l-26.636719-26.640625c-5.226562-5.050781-13.539062-4.976562-18.679688.160157-5.128906 5.136718-5.203124 13.449218-.15625 18.671874l26.640626 26.640626c2.492187 2.503906 5.882812 3.902343 9.414062 3.902343zm0 0"/><path d="m38.210938 91.691406c-7.355469 0-13.320313 5.964844-13.320313 13.324219 0 7.351563 5.964844 13.316406 13.320313 13.316406h26.644531c7.351562 0 13.316406-5.964843 13.316406-13.316406 0-7.359375-5.964844-13.324219-13.316406-13.324219zm0 0"/><path d="m597.660156 358.097656c15.796875.070313 30.136719-9.207031 36.546875-23.648437 6.402344-14.429688 3.667969-31.28125-6.972656-42.953125 13.855469-15.058594 13.855469-38.222656 0-53.28125 14.511719-15.964844 13.726563-40.570313-1.769531-55.578125-15.496094-15.015625-40.105469-15.015625-55.609375 0-15.492188 15.007812-16.277344 39.613281-1.765625 55.578125-13.855469 15.058594-13.855469 38.222656 0 53.28125-10.640625 11.671875-13.378906 28.523437-6.972656 42.953125 6.410156 14.441406 20.753906 23.71875 36.542968 23.648437zm0-159.847656c7.355469 0 13.328125 5.964844 13.328125 13.324219 0 7.355469-5.972656 13.316406-13.328125 13.316406-7.351562 0-13.320312-5.960937-13.320312-13.316406 0-7.359375 5.96875-13.324219 13.320312-13.324219zm0 53.285156c7.355469 0 13.328125 5.960938 13.328125 13.320313 0 7.351562-5.972656 13.320312-13.328125 13.320312-7.351562 0-13.320312-5.96875-13.320312-13.320312 0-7.359375 5.96875-13.320313 13.320312-13.320313zm0 53.28125c7.355469 0 13.328125 5.964844 13.328125 13.316406 0 7.363282-5.972656 13.328126-13.328125 13.328126-7.351562 0-13.320312-5.964844-13.320312-13.328126 0-7.351562 5.96875-13.316406 13.320312-13.316406zm0 0"/><path d="m198.054688 171.613281c-15.792969-.070312-30.136719 9.203125-36.539063 23.636719-6.410156 14.441406-3.675781 31.292969 6.964844 42.964844-13.851563 15.058594-13.851563 38.222656 0 53.28125-14.511719 15.964844-13.722657 40.5625 1.769531 55.578125 15.5 15.011719 40.109375 15.011719 55.609375 0 15.496094-15.015625 16.28125-39.613281 1.765625-55.578125 13.855469-15.058594 13.855469-38.222656 0-53.28125 10.644531-11.671875 13.382812-28.523438 6.972656-42.964844-6.410156-14.433594-20.75-23.707031-36.542968-23.636719zm0 159.847657c-7.355469 0-13.320313-5.964844-13.320313-13.328126 0-7.351562 5.964844-13.316406 13.320313-13.316406 7.351562 0 13.324218 5.964844 13.324218 13.316406 0 7.363282-5.972656 13.328126-13.324218 13.328126zm0-53.285157c-7.355469 0-13.320313-5.96875-13.320313-13.320312 0-7.359375 5.964844-13.320313 13.320313-13.320313 7.351562 0 13.324218 5.960938 13.324218 13.320313 0 7.351562-5.972656 13.320312-13.324218 13.320312zm0-53.285156c-7.355469 0-13.320313-5.960937-13.320313-13.316406 0-7.359375 5.964844-13.324219 13.320313-13.324219 7.351562 0 13.324218 5.964844 13.324218 13.324219 0 7.355469-5.972656 13.316406-13.324218 13.316406zm0 0"/><path d="m424.5 238.214844c-9.53125.152344-18.800781 3.125-26.640625 8.539062-2.3125 1.496094-4.773437 2.761719-7.339844 3.765625-1.941406-4.121093-2.3125-8.816406-1.039062-13.195312 4.378906-15.609375 18.820312-26.226563 35.019531-25.75 3.515625-.007813 6.882812-1.421875 9.351562-3.917969 2.476563-2.503906 3.84375-5.886719 3.804688-9.40625-.074219-7.382812-6.078125-13.320312-13.464844-13.316406-28.453125-.3125-53.472656 18.777344-60.6875 46.296875-1.851562 7.433593-1.882812 15.207031-.09375 22.648437-18.671875 2.636719-32.460937 18.761719-32.152344 37.617188 0 27.382812 32.367188 53.28125 66.601563 53.28125 33.085937 0 66.601563-18.300782 66.601563-53.28125 0-35.351563-13.453126-53.28125-39.960938-53.28125zm-26.640625 79.917968c-20.207031 0-39.964844-15.25-39.964844-26.636718 0-3.636719 0-13.320313 26.640625-13.320313 9.675782-.125 19.089844-3.125 27.058594-8.617187 3.710938-2.867188 8.222656-4.507813 12.90625-4.703125 9.203125 0 13.320312 3.847656 13.320312 26.640625 0 21.070312-26.128906 26.636718-39.960937 26.636718zm0 0"/></svg>