<svg height="852pt" viewBox="-26 -26 852 852.49862" width="852pt" xmlns="http://www.w3.org/2000/svg"><path d="m618.53125-.339844-26.640625 13.316406c-6.582031 3.292969-9.253906 11.292969-5.964844 17.878907 3.292969 6.585937 11.289063 9.253906 17.875 5.964843l26.640625-13.320312c4.253906-2.128906 7.058594-6.367188 7.347656-11.113281.289063-4.753907-1.980468-9.300781-5.957031-11.921875-3.96875-2.628906-9.042969-2.929688-13.300781-.804688zm0 0"/><path d="m417.316406-.339844c-6.574218-3.292968-14.585937-.613281-17.867187 5.960938-3.292969 6.585937-.621094 14.589844 5.960937 17.878906l26.636719 13.320312c4.265625 2.121094 9.339844 1.820313 13.308594-.804687 3.964843-2.625 6.242187-7.167969 5.953125-11.917969-.289063-4.753906-3.089844-8.992187-7.351563-11.121094zm0 0"/><path d="m577.867188 158.097656h-119.878907c-62.53125 0-113.222656 50.6875-113.222656 113.222656 0 62.523438 50.691406 113.222657 113.222656 113.222657h119.878907c62.53125 0 113.21875-50.699219 113.21875-113.222657 0-62.535156-50.6875-113.222656-113.21875-113.222656zm0 199.804688h-119.878907c-47.816406 0-86.582031-38.769532-86.582031-86.582032 0-47.816406 38.765625-86.578124 86.582031-86.578124h119.878907c47.820312 0 86.582031 38.761718 86.582031 86.578124 0 47.8125-38.761719 86.582032-86.582031 86.582032zm0 0"/><path d="m691.085938 371.222656c0 7.355469-5.964844 13.320313-13.316407 13.320313-7.359375 0-13.320312-5.964844-13.320312-13.320313 0-7.359375 5.960937-13.320312 13.320312-13.320312 7.351563 0 13.316407 5.960937 13.316407 13.320312zm0 0"/><path d="m371.40625 371.222656c0 7.355469-5.96875 13.320313-13.320312 13.320313-7.359376 0-13.320313-5.964844-13.320313-13.320313 0-7.359375 5.960937-13.320312 13.320313-13.320312 7.351562 0 13.320312 5.960937 13.320312 13.320312zm0 0"/><path d="m477.96875 317.9375c0 7.363281-5.964844 13.324219-13.320312 13.324219-7.355469 0-13.328126-5.960938-13.328126-13.324219 0-7.351562 5.972657-13.316406 13.328126-13.316406 7.355468 0 13.320312 5.964844 13.320312 13.316406zm0 0"/><path d="m531.25 317.9375c0 7.363281-5.960938 13.324219-13.324219 13.324219-7.355469 0-13.316406-5.960938-13.316406-13.324219 0-7.351562 5.960937-13.316406 13.316406-13.316406 7.363281 0 13.324219 5.964844 13.324219 13.316406zm0 0"/><path d="m584.527344 317.9375c0 7.363281-5.960938 13.324219-13.324219 13.324219-7.351563 0-13.316406-5.960938-13.316406-13.324219 0-7.351562 5.964843-13.316406 13.316406-13.316406 7.363281 0 13.324219 5.964844 13.324219 13.316406zm0 0"/><path d="m371.40625 171.417969c0 7.359375-5.96875 13.324219-13.320312 13.324219-7.359376 0-13.320313-5.964844-13.320313-13.324219 0-7.351563 5.960937-13.320313 13.320313-13.320313 7.351562 0 13.320312 5.96875 13.320312 13.320313zm0 0"/><path d="m691.085938 171.417969c0 7.359375-5.964844 13.324219-13.316407 13.324219-7.359375 0-13.320312-5.964844-13.320312-13.324219 0-7.351563 5.960937-13.320313 13.320312-13.320313 7.351563 0 13.316407 5.96875 13.316407 13.320313zm0 0"/><path d="m464.648438 597.660156h106.554687c7.363281 0 13.324219 5.960938 13.324219 13.320313 0 7.355469-5.960938 13.316406-13.324219 13.316406-7.351563 0-13.316406 5.972656-13.316406 13.324219 0 7.355468 5.964843 13.320312 13.316406 13.320312 22.074219 0 39.960937-17.890625 39.960937-39.960937 0-22.070313-17.886718-39.960938-39.960937-39.960938h-106.554687c-22.066407 0-39.964844 17.890625-39.964844 39.960938 0 22.070312 17.898437 39.960937 39.964844 39.960937 7.355468 0 13.320312-5.964844 13.320312-13.320312 0-7.351563-5.964844-13.324219-13.320312-13.324219-7.355469 0-13.328126-5.960937-13.328126-13.316406 0-7.359375 5.972657-13.320313 13.328126-13.320313zm0 0"/><path d="m577.160156 702.890625 26.640625-13.320313c4.257813-2.125 7.0625-6.363281 7.351563-11.121093.28125-4.75-1.988282-9.292969-5.960938-11.921875-3.96875-2.617188-9.039062-2.929688-13.300781-.804688l-26.636719 13.328125c-6.585937 3.28125-9.253906 11.292969-5.972656 17.871094 3.289062 6.582031 11.292969 9.257813 17.878906 5.96875zm0 0"/><path d="m445.371094 678.980469-26.640625 13.316406c-6.585938 3.292969-9.253907 11.292969-5.964844 17.878906 3.289063 6.585938 11.289063 9.253907 17.871094 5.964844l26.644531-13.320313c6.585938-3.289062 9.253906-11.292968 5.96875-17.867187-3.292969-6.585937-11.292969-9.257813-17.878906-5.972656zm0 0"/><path d="m519.261719 790.09375c1.570312 3.164062 4.347656 5.574219 7.699219 6.6875 3.351562 1.121094 7.015624.863281 10.171874-.71875l26.636719-13.320312c4.265625-2.121094 7.0625-6.359376 7.351563-11.117188.285156-4.75-1.984375-9.292969-5.949219-11.921875-3.976563-2.621094-9.046875-2.929687-13.308594-.804687l-26.640625 13.320312c-3.15625 1.578125-5.566406 4.351562-6.6875 7.703125-1.117187 3.355469-.859375 7.015625.726563 10.171875zm0 0"/><path d="m485.335938 729.527344 26.640624 13.324218c6.578126 3.285157 14.582032.617188 17.871094-5.96875 3.292969-6.585937.617188-14.585937-5.964844-17.878906l-26.640624-13.316406c-6.585938-3.285156-14.589844-.617188-17.875 5.96875-3.289063 6.578125-.617188 14.582031 5.96875 17.871094zm0 0"/><path d="m537.199219 652.34375-26.640625-13.328125c-6.582032-3.28125-14.582032-.613281-17.875 5.972656-3.289063 6.582031-.617188 14.582031 5.96875 17.875l26.640625 13.316407c4.261719 2.128906 9.324219 1.824218 13.300781-.804688 3.972656-2.617188 6.238281-7.164062 5.953125-11.921875-.289063-4.746094-3.082031-8.984375-7.347656-11.109375zm0 0"/><path d="m464.648438 211.382812c-7.355469 0-13.328126 5.960938-13.328126 13.316407v39.960937c0 7.359375 5.972657 13.320313 13.328126 13.320313 7.355468 0 13.320312-5.960938 13.320312-13.320313v-39.960937c0-7.355469-5.964844-13.316407-13.320312-13.316407zm0 0"/><path d="m517.925781 211.382812c-7.355469 0-13.316406 5.960938-13.316406 13.316407v39.960937c0 7.359375 5.960937 13.320313 13.316406 13.320313 7.363281 0 13.324219-5.960938 13.324219-13.320313v-39.960937c0-7.355469-5.960938-13.316407-13.324219-13.316407zm0 0"/><path d="m571.203125 211.382812c-7.351563 0-13.316406 5.960938-13.316406 13.316407v39.960937c0 7.359375 5.964843 13.320313 13.316406 13.320313 7.363281 0 13.324219-5.960938 13.324219-13.320313v-39.960937c0-7.355469-5.960938-13.316407-13.324219-13.316407zm0 0"/><path d="m784.324219 158.097656c-7.355469 0-13.320313 5.96875-13.320313 13.320313v113.96875c-8.058594-4.796875-17.253906-7.351563-26.640625-7.40625v-133.203125c0-22.0625-17.886719-39.957032-39.953125-39.957032h-106.566406v-13.320312c0-22.070312-17.886719-39.957031-39.957031-39.957031v-13.320313c0-22.070312-17.886719-39.96875-39.960938-39.96875-22.066406 0-39.957031 17.898438-39.957031 39.96875v13.320313c-22.070312 0-39.964844 17.886719-39.964844 39.957031v13.320312h-106.554687c-22.074219 0-39.964844 17.894532-39.964844 39.957032v173.160156h-159.835937c-22.074219 0-39.964844 17.894531-39.964844 39.964844v28.503906l-65.71875 21.535156c-20.96875 6.878906-32.394532 29.445313-25.519532 50.421875l91.238282 278.351563v20.789062c0 22.066406 17.890625 39.957032 39.964844 39.957032h346.320312c7.351562 0 13.320312-5.960938 13.320312-13.320313s-5.96875-13.320313-13.320312-13.320313h-119.882812c-7.359376 0-13.320313-5.964843-13.320313-13.316406v-213.121094h346.320313v213.121094c0 7.351563-5.964844 13.316406-13.316407 13.316406h-53.289062c-7.347657 0-13.316407 5.960938-13.316407 13.320313s5.96875 13.320313 13.316407 13.320313h53.289062c22.070313 0 39.957031-17.890626 39.957031-39.957032v-276.582031l13.984376-27.96875c8.308593-16.652344 12.632812-35.003906 12.652343-53.613281v-14.796875c29.429688 0 53.28125-23.855469 53.28125-53.28125v-159.84375c0-7.351563-5.960937-13.320313-13.320312-13.320313zm-692.640625 493.097656-65.933594-201.128906c-1.101562-3.363281-.816406-7.019531.773438-10.171875 1.59375-3.152343 4.382812-5.542969 7.738281-6.640625l57.421875-18.824218zm412.925781-612.972656c0-7.355468 5.960937-13.328125 13.316406-13.328125 7.363281 0 13.324219 5.972657 13.324219 13.328125v13.320313h-26.640625zm-39.960937 53.277344c0-7.355469 5.960937-13.316406 13.320312-13.316406h79.917969c7.355469 0 13.316406 5.960937 13.316406 13.316406v13.320312h-106.554687zm-333 679.320312c-7.359376 0-13.328126-5.964843-13.328126-13.316406v-399.601562c0-7.359375 5.96875-13.324219 13.328126-13.324219h159.835937v54.761719c.023437 18.609375 4.355469 36.96875 12.652344 53.628906l13.988281 27.96875v39.160156c-8.5-10.070312-21.0625-15.820312-34.242188-15.671875-9.367187-.316406-18.515624 2.832031-25.699218 8.847657-7.179688-6.015626-16.324219-9.164063-25.691406-8.847657-25.898438.882813-46.683594 21.667969-47.566407 47.566407 0 28.257812 19.714844 42.351562 35.546875 53.664062 15.574219 11.128906 24.390625 18.101562 24.390625 31.964844 0 7.355468 5.964844 13.320312 13.320313 13.320312 7.359375 0 13.320312-5.964844 13.320312-13.320312 0-13.863282 8.816406-20.835938 24.386719-31.964844 8.117187-5.40625 15.582031-11.734375 22.234375-18.863281v170.710937c.015625 2.515625.269531 5.027344.761719 7.496094.148437.800781.410156 1.546875.609375 2.332031.292968 1.15625.507812 2.371094.910156 3.488281zm173.160156-218.828124c0 13.878906-8.824219 20.859374-24.402344 31.964843-8.105469 5.335938-15.5625 11.589844-22.222656 18.648438-6.660156-7.058594-14.121094-13.3125-22.21875-18.648438-15.578125-11.140625-24.398438-18.113281-24.398438-31.964843 0-.207032 3.015625-20.925782 20.925782-20.925782 3.371093-.332031 6.710937.867188 9.101562 3.265625 2.394531 2.390625 3.601562 5.734375 3.269531 9.101563 0 7.363281 5.964844 13.324218 13.320313 13.324218 7.359375 0 13.320312-5.960937 13.320312-13.324218-.324218-3.367188.871094-6.710938 3.265625-9.101563 2.402344-2.398437 5.742188-3.597656 9.113281-3.265625 17.914063 0 20.925782 20.71875 20.925782 20.925782zm386.277344-34.253907h-346.320313v-26.640625h346.320313zm26.640624-226.4375v108.039063c-.011718 3.960937-.292968 7.914062-.824218 11.84375h-159.015625c-7.359375 0-13.320313 5.960937-13.320313 13.316406 0 7.359375 5.960938 13.320312 13.320313 13.320312h151.378906c-.492187 1.070313-.863281 2.1875-1.324219 3.226563l-11.761718 23.414063h-356.5l-11.710938-23.414063c-.519531-1.039063-.890625-2.15625-1.328125-3.226563h151.328125c7.351562 0 13.320312-5.960937 13.320312-13.320312 0-7.355469-5.96875-13.316406-13.320312-13.316406h-159.03125c-.519531-3.929688-.796875-7.882813-.8125-11.84375v-254.5625c0-7.351563 5.960938-13.316406 13.324219-13.316406h372.960937c7.355469 0 13.316406 5.964843 13.316406 13.316406zm26.636719 66.601563v-53.28125c14.714844 0 26.640625 11.925781 26.640625 26.640625 0 14.714843-11.925781 26.640625-26.640625 26.640625zm0 0"/></svg>