<svg id="Layer_1" enable-background="new 0 0 512 512" height="512" viewBox="0 0 512 512" width="512" xmlns="http://www.w3.org/2000/svg"><g><path d="m511.583 185.969c-21.357-61.348-60.699-105.655-62.363-107.511-1.218-1.359-2.89-2.227-4.702-2.441-.84-.1-85.228-9.949-188.518-9.949-22.793 0-46.443.479-70.292 1.422-4.139.164-7.361 3.652-7.198 7.791s3.653 7.343 7.791 7.198c17.618-.697 35.123-1.138 52.247-1.318-18.361 20.049-53.662 60.817-79.022 103.8-26.746-42.127-58.691-78.17-75.08-95.64 13.752-1.34 36.1-3.299 63.996-4.963 4.135-.247 7.287-3.799 7.04-7.934-.247-4.134-3.781-7.28-7.934-7.04-47.909 2.858-79.751 6.595-80.067 6.633-1.812.214-3.484 1.082-4.702 2.441-1.665 1.856-41.005 46.164-62.363 107.511-.659 1.893-.533 3.971.35 5.77 12.749 25.981 26.826 51.743 41.84 76.568 1.41 2.331 3.886 3.62 6.425 3.62 1.322 0 2.66-.35 3.874-1.083 3.544-2.144 4.68-6.754 2.536-10.299-12.426-20.545-24.199-41.742-35.093-63.17 22.553 2.317 71.156 6.797 133.153 9.542 5.119 26.769 28.701 140.161 83.654 272.598-9.641-8.329-21.856-19.392-35.826-33.16-32.314-31.847-80.712-84.933-127.766-156.983-2.265-3.468-6.913-4.444-10.38-2.178-3.468 2.265-4.443 6.912-2.178 10.38 47.783 73.166 96.958 127.102 129.795 159.464 35.694 35.177 59.78 52.796 60.788 53.529 1.315.956 2.863 1.434 4.411 1.434s3.096-.478 4.411-1.434c1.796-1.306 44.644-32.714 100.708-95.516 2.759-3.09 2.49-7.831-.6-10.589-3.089-2.759-7.831-2.491-10.589.6-30.409 34.063-57.172 58.944-75.071 74.416 54.943-132.421 78.521-245.795 83.639-272.562 61.999-2.745 110.603-7.224 133.155-9.542-33.076 65.088-73.379 126.39-119.929 182.386-2.648 3.185-2.212 7.914.973 10.562 1.401 1.165 3.101 1.732 4.791 1.732 2.152 0 4.288-.921 5.771-2.706 50.217-60.407 93.273-126.893 127.974-197.61.884-1.798 1.01-3.876.351-5.769zm-493.734-3.936c16.106-41.474 40.425-74.276 50.947-87.382 13.537 14.152 48.584 52.348 77.139 96.902-61.672-2.934-108.837-7.485-128.086-9.52zm238.151 303.601c-55.874-131.218-80.731-245.716-87.097-278.085 27.136 1.031 56.489 1.695 87.097 1.695 30.609 0 59.962-.664 87.099-1.695-6.359 32.357-31.191 146.793-87.099 278.085zm96.47-300.669c-4.681-7.925-9.921-16.148-15.659-24.565-2.333-3.423-7-4.306-10.421-1.973-3.423 2.333-4.306 6.999-1.973 10.421 5.576 8.181 10.658 16.155 15.184 23.823-26.134.961-54.286 1.574-83.601 1.574s-57.466-.612-83.601-1.574c27.811-47.097 69.022-92.688 83.604-108.236 9.063 9.651 28.396 30.876 48.324 56.771 1.478 1.919 3.701 2.926 5.949 2.926 1.597 0 3.206-.508 4.569-1.557 3.283-2.526 3.896-7.235 1.37-10.518-16.35-21.244-32.344-39.446-42.806-50.897 69.202.729 127.645 5.594 154.139 8.166-16.391 17.473-48.334 53.515-75.078 95.639zm13.594 6.589c28.557-44.558 63.609-82.757 77.143-96.906 10.52 13.088 34.816 45.842 50.944 87.385-19.247 2.035-66.413 6.586-128.087 9.521z"/><path d="m70.775 362.638c4.021-.996 6.472-5.063 5.476-9.083s-5.061-6.472-9.083-5.476l-39.888 9.881c-4.021.996-6.472 5.063-5.476 9.083.846 3.415 3.907 5.698 7.274 5.698.597 0 1.204-.072 1.81-.222z"/><path d="m97.524 400.69-64.537 37.101c-3.591 2.064-4.829 6.649-2.764 10.24 1.387 2.413 3.912 3.764 6.509 3.764 1.268 0 2.553-.322 3.731-1l64.537-37.101c3.591-2.064 4.829-6.649 2.764-10.24s-6.649-4.829-10.24-2.764z"/><path d="m141.625 449.524c-3.263-2.553-7.977-1.978-10.529 1.284l-18.045 23.057c-2.553 3.262-1.978 7.976 1.284 10.529 1.372 1.074 3 1.594 4.617 1.594 2.228 0 4.433-.988 5.912-2.878l18.045-23.057c2.552-3.262 1.977-7.976-1.284-10.529z"/><path d="m484.72 354.7-39.888-9.882c-4.021-.997-8.087 1.456-9.083 5.476-.996 4.021 1.456 8.087 5.476 9.083l39.888 9.882c.606.15 1.212.222 1.81.222 3.367 0 6.428-2.284 7.274-5.698.995-4.021-1.456-8.087-5.477-9.083z"/><path d="m479.012 434.531-64.537-37.1c-3.591-2.063-8.176-.827-10.24 2.764s-.827 8.176 2.764 10.24l64.537 37.1c1.178.677 2.463 1 3.731 1 2.597 0 5.122-1.351 6.509-3.764 2.065-3.591.828-8.176-2.764-10.24z"/><path d="m380.904 447.548c-2.554-3.261-7.266-3.838-10.529-1.284-3.262 2.553-3.836 7.267-1.284 10.529l18.045 23.057c1.479 1.89 3.684 2.878 5.912 2.878 1.616 0 3.245-.521 4.617-1.594 3.262-2.553 3.836-7.267 1.284-10.529z"/><path d="m256 43.165c4.142 0 7.5-3.358 7.5-7.5v-28.165c0-4.142-3.358-7.5-7.5-7.5s-7.5 3.358-7.5 7.5v28.165c0 4.142 3.358 7.5 7.5 7.5z"/><path d="m168.604 46.309c1.396 2.381 3.902 3.707 6.477 3.707 1.289 0 2.595-.333 3.787-1.031 3.573-2.095 4.771-6.69 2.676-10.264l-9.083-15.489c-2.096-3.573-6.691-4.771-10.264-2.676s-4.771 6.69-2.676 10.264z"/><path d="m333.132 48.985c1.192.699 2.498 1.031 3.787 1.031 2.574 0 5.081-1.326 6.477-3.707l9.083-15.489c2.095-3.573.897-8.168-2.676-10.264s-8.168-.897-10.264 2.676l-9.083 15.489c-2.095 3.574-.896 8.169 2.676 10.264z"/><circle cx="251.13" cy="395.043" r="7.5"/><circle cx="74.54" cy="231.373" r="7.5"/><circle cx="129.81" cy="109.323" r="7.5"/><circle cx="377.91" cy="103.043" r="7.5"/><circle cx="433.63" cy="235.513" r="7.5"/></g></svg>