<svg id="Capa_1" enable-background="new 0 0 512 512" height="512" viewBox="0 0 512 512" width="512" xmlns="http://www.w3.org/2000/svg"><path d="m344.177 319.613c12.976 0 23.532-10.557 23.532-23.532v-112.226c0-12.976-10.557-23.532-23.532-23.532h-8.016c-4.142 0-7.5 3.358-7.5 7.5s3.358 7.5 7.5 7.5h8.016c4.705 0 8.532 3.828 8.532 8.532v112.226c0 4.705-3.828 8.532-8.532 8.532h-72.661v-129.29h32.58c4.142 0 7.5-3.358 7.5-7.5s-3.358-7.5-7.5-7.5h-216.435c-12.976 0-23.532 10.556-23.532 23.532v112.226c0 12.976 10.557 23.532 23.532 23.532zm-87.661-15h-81.193v-129.29h81.193zm-177.387-8.532v-112.226c0-4.705 3.828-8.532 8.532-8.532h72.662v129.29h-72.662c-4.704 0-8.532-3.828-8.532-8.532z"/><path d="m141.67 203.288c-1.421-1.821-3.602-2.885-5.912-2.885h-32.065c-4.142 0-7.5 3.358-7.5 7.5s3.358 7.5 7.5 7.5h22.459l-13.703 54.81c-1.005 4.019 1.438 8.091 5.457 9.095.61.153 1.222.226 1.825.226 3.36 0 6.418-2.275 7.27-5.683l16.033-64.129c.561-2.24.057-4.614-1.364-6.434z"/><path d="m199.887 215.403h22.458l-13.702 54.81c-1.005 4.019 1.438 8.091 5.457 9.095.61.153 1.222.226 1.825.226 3.36 0 6.418-2.275 7.27-5.683l16.032-64.129c.561-2.241.057-4.614-1.364-6.435s-3.602-2.885-5.912-2.885h-32.064c-4.142 0-7.5 3.358-7.5 7.5s3.358 7.501 7.5 7.501z"/><path d="m310.294 279.308c.61.153 1.222.226 1.825.226 3.36 0 6.418-2.275 7.27-5.683l16.032-64.129c.561-2.241.057-4.614-1.364-6.435s-3.602-2.885-5.912-2.885h-32.064c-4.142 0-7.5 3.358-7.5 7.5s3.358 7.5 7.5 7.5h22.458l-13.702 54.81c-1.005 4.02 1.438 8.092 5.457 9.096z"/><path d="m215.919 55.081c4.142 0 7.5-3.358 7.5-7.5v-40.081c0-4.142-3.358-7.5-7.5-7.5s-7.5 3.358-7.5 7.5v40.081c0 4.142 3.358 7.5 7.5 7.5z"/><path d="m169.131 50.935c1.314 2.628 3.962 4.148 6.714 4.148 1.127 0 2.271-.255 3.348-.793 3.705-1.853 5.207-6.357 3.354-10.062l-8.016-16.032c-1.852-3.705-6.356-5.207-10.062-3.354-3.705 1.853-5.207 6.357-3.354 10.062z"/><path d="m252.646 54.289c1.077.538 2.221.793 3.348.793 2.751 0 5.4-1.52 6.714-4.148l8.016-16.032c1.853-3.705.351-8.21-3.354-10.062s-8.21-.351-10.062 3.354l-8.016 16.032c-1.853 3.705-.351 8.21 3.354 10.063z"/><path d="m288.064 352.71h-144.29c-12.976 0-23.533 10.556-23.533 23.532s10.557 23.532 23.533 23.532h144.29c12.976 0 23.532-10.556 23.532-23.532s-10.556-23.532-23.532-23.532zm0 32.064h-144.29c-4.705 0-8.533-3.828-8.533-8.532s3.828-8.532 8.533-8.532h144.29c4.705 0 8.532 3.828 8.532 8.532s-3.827 8.532-8.532 8.532z"/><path d="m487.952 231.952c0-12.976-10.557-23.532-23.532-23.532s-23.532 10.557-23.532 23.532c0 10.354 6.724 19.16 16.032 22.3v105.958c0 4.705-3.828 8.532-8.532 8.532h-8.532v-8.532c0-12.976-10.557-23.532-23.532-23.532h-8.532v-152.823c0-35.076-28.537-63.613-63.613-63.613h-67.51l-17.544-35.089c-4.012-8.024-12.077-13.008-21.048-13.008h-44.312c-8.971 0-17.036 4.985-21.047 13.008l-17.544 35.088h-67.51c-35.076 0-63.613 28.537-63.613 63.613v304.613c0 12.976 10.557 23.532 23.532 23.532h336.678c12.976 0 23.532-10.557 23.532-23.532v-72.662h8.532c12.976 0 23.532-10.556 23.532-23.532v-8.532h8.532c12.976 0 23.532-10.556 23.532-23.532v-105.958c9.307-3.139 16.031-11.946 16.031-22.299zm-301.82-140.091c1.454-2.909 4.378-4.716 7.631-4.716h44.312c3.253 0 6.177 1.807 7.632 4.716l14.19 28.38h-87.955zm198.126 405.139h-336.677c-4.705 0-8.532-3.828-8.532-8.532v-8.532h24.568c4.142 0 7.5-3.358 7.5-7.5s-3.358-7.5-7.5-7.5h-24.569v-281.081c0-26.805 21.808-48.613 48.613-48.613h256.516c26.806 0 48.613 21.808 48.613 48.613v281.081h-297.113c-4.142 0-7.5 3.358-7.5 7.5s3.358 7.5 7.5 7.5h297.113v8.532c.001 4.704-3.827 8.532-8.532 8.532zm40.597-104.726c0 4.705-3.828 8.532-8.532 8.532h-8.532v-49.129h8.532c4.705 0 8.532 3.828 8.532 8.532zm39.564-151.79c-4.705 0-8.532-3.828-8.532-8.532s3.828-8.532 8.532-8.532 8.532 3.828 8.532 8.532-3.827 8.532-8.532 8.532z"/></svg>