<?xml version="1.0" encoding="utf-8"?>
<!-- Generator: Adobe Illustrator 24.3.0, SVG Export Plug-In . SVG Version: 6.00 Build 0)  -->
<!DOCTYPE svg PUBLIC "-//W3C//DTD SVG 1.1//EN" "http://www.w3.org/Graphics/SVG/1.1/DTD/svg11.dtd" [
	<!ENTITY ns_extend "http://ns.adobe.com/Extensibility/1.0/">
	<!ENTITY ns_ai "http://ns.adobe.com/AdobeIllustrator/10.0/">
	<!ENTITY ns_graphs "http://ns.adobe.com/Graphs/1.0/">
	<!ENTITY ns_vars "http://ns.adobe.com/Variables/1.0/">
	<!ENTITY ns_imrep "http://ns.adobe.com/ImageReplacement/1.0/">
	<!ENTITY ns_sfw "http://ns.adobe.com/SaveForWeb/1.0/">
	<!ENTITY ns_custom "http://ns.adobe.com/GenericCustomNamespace/1.0/">
	<!ENTITY ns_adobe_xpath "http://ns.adobe.com/XPath/1.0/">
]>
<svg version="1.1" id="Capa_1" xmlns:x="&ns_extend;" xmlns:i="&ns_ai;" xmlns:graph="&ns_graphs;"
	 xmlns="http://www.w3.org/2000/svg" xmlns:xlink="http://www.w3.org/1999/xlink" x="0px" y="0px" viewBox="0 0 352.6 352.6"
	 style="enable-background:new 0 0 352.6 352.6;" xml:space="preserve">
<metadata>
	<sfw  xmlns="&ns_sfw;">
		<slices></slices>
		<sliceSourceBounds  bottomLeftOrigin="true" height="311.5" width="352.6" x="0" y="20.6"></sliceSourceBounds>
	</sfw>
</metadata>
<path d="M337.2,23c-15.9-8.6-33.7,8-44.1,17.7c-23.9,23.3-44.1,50.2-66.7,74.7c-25.1,26.9-48.3,53.9-74.1,80.2
	c-14.7,14.7-30.6,30.6-40.4,49c-22-21.4-41-44.7-65.5-63.6C28.8,167.4-0.6,157.6,0,190c1.2,42.2,38.6,87.5,66.1,116.3
	c11.6,12.2,26.9,25.1,44.7,25.7c21.4,1.2,43.5-24.5,56.3-38.6c22.6-24.5,41-52,61.8-77.1c26.9-33,54.5-65.5,80.8-99.1
	C326.2,96.4,378.2,45,337.2,23z"/>
</svg>
