<svg xmlns="http://www.w3.org/2000/svg" viewBox="0 0 512 360"><path d="M142.5 150h77c12.4 0 22.5-10.1 22.5-22.5v-45c0-12.4-10.1-22.5-22.5-22.5h-77C130.1 60 120 70.1 120 82.5v45c0 12.4 10.1 22.5 22.5 22.5zM135 82.5c0-4.1 3.4-7.5 7.5-7.5h77c4.1 0 7.5 3.4 7.5 7.5v45c0 4.1-3.4 7.5-7.5 7.5h-77c-4.1 0-7.5-3.4-7.5-7.5v-45zM444.5 165h-317c-4.1 0-7.5 3.4-7.5 7.5v30c0 4.1 3.4 7.5 7.5 7.5h317c4.1 0 7.5-3.4 7.5-7.5v-30c0-4.1-3.4-7.5-7.5-7.5zm-7.5 30H135v-15h302v15zm-99.5 30h-210c-4.1 0-7.5 3.4-7.5 7.5s3.4 7.5 7.5 7.5h210c4.1 0 7.5-3.4 7.5-7.5s-3.4-7.5-7.5-7.5z"/><path d="M474.5 0h-377C76.8 0 60 16.8 60 37.5V60H37.5C16.8 60 0 76.8 0 97.5v225C0 343.2 16.8 360 37.5 360h377c20.7 0 37.5-16.8 37.5-37.5V300h22.5c20.7 0 37.5-16.8 37.5-37.5v-225C512 16.8 495.2 0 474.5 0zm-437 75H60v60H15V97.5C15 85.1 25.1 75 37.5 75zM60 150v45H15v-45h45zm437 112.5c0 12.4-10.1 22.5-22.5 22.5h-377C85.1 285 75 274.9 75 262.5v-30c0-4.1-3.4-7.5-7.5-7.5s-7.5 3.4-7.5 7.5v30c0 20.7 16.8 37.5 37.5 37.5H437v22.5c0 12.4-10.1 22.5-22.5 22.5h-377C25.1 345 15 334.9 15 322.5V210h52.5c4.1 0 7.5-3.4 7.5-7.5v-165C75 25.1 85.1 15 97.5 15h377c12.4 0 22.5 10.1 22.5 22.5v225z"/></svg>