<svg xmlns="http://www.w3.org/2000/svg" viewBox="0 0 512 503"><path d="M391.2 297.9H206.4L308.5 241c10.7-6 14.5-19.5 8.6-30.2l-15.2-27.3c-6-10.7-19.5-14.5-30.2-8.6l-42.5 23.7c5-10 8.1-19.9 9.3-29.4 1.9-15.9-1.7-30.2-10.4-41.5-14.2-18.3-39-24.4-60.3-14.8-3.8 1.7-5.5 6.1-3.8 9.9 1.7 3.8 6.1 5.5 9.9 3.8 15-6.7 32.4-2.5 42.3 10.3 14.3 18.4 8.8 47.1-14.6 77.1l-9.1 5-6.6-11.7c-1.7-3-3.9-5.7-6.4-7.8 1.6-9.5 6-21.9 10.9-29.9 2.2-3.5 1-8.2-2.5-10.3-3.5-2.2-8.2-1-10.3 2.5-5.3 8.7-9.9 20.7-12.2 31.3-6.3-1-12.7.1-18.3 3.2l-2.6 1.4c-1-21.6 2.3-39.8 9.9-52.8 2.1-3.6.9-8.2-2.7-10.2-3.6-2.1-8.2-.9-10.2 2.7-10 17.3-13.9 40.3-11.4 68.4l-9.1 5c-38.3-28.4-75.7-34.3-100.8-15.4-18.2 13.7-25 37.8-16.7 58.7 8.5 21.3 29.9 34.3 59.4 37.1l-43.5 24.2c-10.7 5.9-14.5 19.5-8.6 30.2L26.1 373c4.1 7.3 11.6 11.4 19.4 11.4 3.7 0 7.4-.9 10.8-2.8l49-27.3v122.2c0 14.7 12 26.6 26.6 26.6h250.8c14.7 0 26.6-11.9 26.6-26.6V316.1c.1-10-8.1-18.2-18.1-18.2zm-250 19.1L119 277.1l67.7-37.7 22.2 39.9-33.8 18.9c-1.2.3-2.3.9-3.2 1.8l-30.7 17zm137.7-129c1.1-.6 2.3-.9 3.5-.9 2.5 0 5 1.3 6.3 3.7l15.2 27.3c1.9 3.5.7 7.9-2.8 9.8L222 272l-22.2-39.9 79.1-44.1zm-124.4 21.4c2-1.1 4.2-1.7 6.5-1.7 1.2 0 2.5.2 3.7.5 3.5 1 6.4 3.3 8.1 6.4l6.6 11.7-67.7 37.7-6.6-11.8c-1.3-2.3-1.8-4.9-1.6-7.5v-.2c.1-.8.2-1.7.5-2.5 1-3.5 3.3-6.3 6.4-8.1l44.1-24.5zm-137 39.2c-5.9-14.6-1-31.6 11.7-41.1 18.4-13.8 46.8-9.4 77.3 11.5l-3.5 1.9c-5.5 3.1-9.8 7.8-12.2 13.5-9.9-3.1-18.8-4.8-31.5-6.2-4.1-.4-7.8 2.5-8.3 6.6-.5 4.1 2.5 7.8 6.6 8.3 14 1.5 22.3 3.4 31 6.4.5 3.5 1.6 7 3.4 10.1l6.6 11.8-8.2 4.6c-37.2 4-64.4-6.2-72.9-27.4zM49 368.4c-3.4 1.9-7.9.6-9.8-2.8L24 338.4c-1.9-3.5-.7-7.9 2.8-9.8l69.4-38.7c.2-.1.4-.2.6-.4l9.2-5.1 22.2 39.9-18.9 10.5s-.1 0-.1.1L49 368.4zm71.3 108V345.9l59.2-33H214v66.4c0 4.1 3.4 7.5 7.5 7.5s7.5-3.4 7.5-7.5v-66.4h56.6V488H229v-73.2c0-4.1-3.4-7.5-7.5-7.5s-7.5 3.4-7.5 7.5V488h-82.1c-6.4 0-11.6-5.2-11.6-11.6zm274.1 0c0 6.4-5.2 11.6-11.6 11.6h-82.1V312.9h90.5c1.7 0 3.2 1.5 3.2 3.2v160.3z"/><path d="M363.7 129.9c.1.9 9.6 92.6-22.5 127.4-2.8 3-2.6 7.8.4 10.6 1.4 1.3 3.3 2 5.1 2 2 0 4-.8 5.5-2.4 36.7-39.8 26.8-135.2 26.4-139.2-.4-4.1-4.1-7.1-8.3-6.6-4.1.3-7.1 4-6.6 8.2zm68.6-11.2c-12.7 19.4-16.7 36.8-16.9 37.5-.9 4 1.6 8 5.6 9 .6.1 1.1.2 1.7.2 3.4 0 6.5-2.4 7.3-5.8 0-.2 3.7-15.8 15.1-33.1 15-22.7 35.5-37.3 61.1-43.4 4-1 6.5-5 5.6-9-1-4-5-6.5-9-5.6-29.3 7-53.6 24.3-70.5 50.2zM278.4 77.5c0 .2.1.6 0 1.5l-1.8 21.8c-.3 2.3-.7 7.5 3.5 10.7 4.3 3.3 9.4 1.2 11.6.3l20-8.4c.4-.1 1.4-.1 1.7 0l20.2 8.4c1.3.5 3.5 1.4 6.1 1.4 1.8 0 3.6-.4 5.4-1.8 4.2-3.2 3.7-8.4 3.5-10.7L346.9 79c-.1-.9 0-1.3 0-1.5L361.5 60c1.7-1.9 5-5.8 3.4-10.8-1.6-5.1-6.8-6.4-9-6.9l-22.1-5.5-11.6-19.4c-1.1-1.8-3.9-6.6-9.5-6.6-5.5 0-8.4 4.8-9.5 6.6l-11.6 19.3-.1.2-22.2 5.5c-2.2.5-7.4 1.8-8.9 6.9-1.6 5 1.9 9 3.4 10.8l14.6 17.4zm17.4-26.3c5-1.2 6.8-3.7 8.4-6.4l8.5-14.1 8.5 14.3c1.5 2.6 3.3 5 8.3 6.2l16.4 4.1L335.3 68c-3.5 4.1-3.6 8.7-3.4 12.2l1.2 15.2-13.9-5.8c-3.9-1.7-9.3-1.7-13.3 0L292 95.4l1.2-15.2c.2-3.2.2-8-3.3-12.1l-10.7-12.8 16.6-4.1zm212.3 181.2c1.6-1.8 5-5.8 3.5-10.8-1.6-5.1-6.8-6.4-9-6.9l-22.1-5.5-11.7-19.5c-1.1-1.8-4-6.6-9.5-6.6s-8.4 4.8-9.5 6.6L438.3 209l-.1.2-22.1 5.5c-2.2.5-7.4 1.8-9 6.9-1.6 5 1.9 9 3.5 10.8l14.5 17.5v1.5l-1.8 21.8c-.2 2.3-.7 7.5 3.5 10.7 4.3 3.2 9.3 1.2 11.5.3l20-8.4c.4-.1 1.4-.1 1.8 0l20.2 8.4c1.3.5 3.5 1.4 6.1 1.4 1.8 0 3.6-.4 5.4-1.8 4.2-3.2 3.8-8.4 3.5-10.7l-1.8-21.8c-.1-.9 0-1.3 0-1.5l14.6-17.4zm-26.1 8c-3.5 4.1-3.6 8.7-3.4 12.2l1.2 15.2L466 262c-4-1.6-9.3-1.6-13.2 0l-13.9 5.8 1.2-15.2c.3-3.5.1-8.1-3.3-12.1l-10.6-12.8 16.5-4.1c5-1.2 6.8-3.7 8.3-6.3l8.5-14.2 8.2 13.6.3.5c1.5 2.6 3.3 5.1 8.3 6.4l16.4 4.1-10.7 12.7zM432 75c20.7 0 37.5-16.8 37.5-37.5S452.7 0 432 0s-37.5 16.8-37.5 37.5S411.3 75 432 75zm0-60c12.4 0 22.5 10.1 22.5 22.5S444.4 60 432 60s-22.5-10.1-22.5-22.5S419.6 15 432 15z"/></svg>