<svg xmlns="http://www.w3.org/2000/svg" xmlns:xlink="http://www.w3.org/1999/xlink" viewBox="0 0 635 635"><defs><path id="a" d="M0 0h635v635H0z"/></defs><clipPath id="b"><use xlink:href="#a" overflow="visible"/></clipPath><path d="M0 317.5C0 142.1 142.1 0 317.5 0S635 142.1 635 317.5 492.8 635 317.5 635 0 492.9 0 317.5" clip-path="url(#b)" fill="#f6d738"/><path d="M48 317.5C48 168.7 168.7 48 317.5 48S587 168.7 587 317.5 466.3 587 317.5 587 48 466.3 48 317.5" clip-path="url(#b)" fill="#f3cc30"/><path d="M458.5 87.5c26.8 41.9 42.4 91.7 42.4 145.1 0 148.8-120.6 269.5-269.5 269.5-51.7 0-100-14.6-141-39.8 47.9 74.8 131.7 124.3 227.1 124.3C466.3 586.6 587 466 587 317.2c0-97.2-51.4-182.3-128.5-229.7" clip-path="url(#b)" fill="#edbd31"/><path d="M95.2 342.2c0-131.4 106.5-237.9 237.9-237.9 76.8 0 145.1 36.4 188.6 92.9-41.1-71.3-118.1-119.4-206.3-119.4C184 77.8 77.5 184.3 77.5 315.7c0 54.6 18.4 104.9 49.3 145-20.1-34.9-31.6-75.4-31.6-118.5" clip-path="url(#b)" fill="#f7db5e"/></svg>